<svg xmlns="http://www.w3.org/2000/svg" width="100%" height="auto" viewBox="0 0 1024 1024" version="1.1">
	<path d="M 0 512.001 L 0 1024.002 512.250 1023.751 L 1024.500 1023.500 1024.751 511.750 L 1025.002 0 512.501 0 L 0 0 0 512.001 M 0.496 512.500 C 0.496 794.100, 0.610 909.151, 0.750 768.168 C 0.890 627.186, 0.890 396.786, 0.750 256.168 C 0.610 115.551, 0.496 230.900, 0.496 512.500 M 121.500 24.674 C 81.410 29.677, 48.125 57.435, 35.043 96.777 C 33.448 101.575, 31.642 109.100, 31.029 113.500 C 30.223 119.297, 29.997 233.733, 30.208 529 L 30.500 936.500 33.224 944.500 C 39.885 964.058, 53.002 978.804, 70.703 986.632 C 82.107 991.676, 84.609 991.865, 144.286 992.193 C 193.011 992.461, 200.192 992.310, 201.021 991 C 202.480 988.692, 202.236 975.441, 200.712 974.176 C 200.003 973.588, 196.601 972.970, 193.153 972.803 L 186.882 972.500 186.968 923.648 C 187.062 870.272, 186.902 871.785, 192.995 866.658 C 194.682 865.238, 197.661 863.635, 199.616 863.096 C 201.926 862.458, 311.648 862.326, 513.235 862.720 L 823.299 863.325 827.347 865.465 C 830.014 866.875, 832.180 869.091, 833.697 871.960 L 836 876.315 836 924.657 L 836 973 830.082 973 C 820.956 973, 821 972.954, 821 982.572 C 821 989.509, 821.297 991.088, 822.750 991.863 C 823.803 992.425, 846.817 992.620, 880.500 992.353 C 942.220 991.864, 942.612 991.828, 955.500 985.461 C 973.141 976.747, 985.518 961.383, 991.718 940.500 C 993.412 934.796, 993.515 914.639, 993.802 532 C 994.014 248.347, 993.783 126.327, 993.020 118.754 C 991.207 100.754, 986.116 86.117, 976.589 71.510 C 963.718 51.775, 944.612 36.875, 922.500 29.327 C 905.973 23.686, 930.609 23.996, 511 24.154 C 298.425 24.234, 123.150 24.468, 121.500 24.674 M 122.500 61.632 C 99.332 66.519, 78.060 85.443, 69.719 108.588 C 65.370 120.653, 65 126.596, 65 184.296 L 65 238.709 79.750 239.277 C 102.701 240.159, 119.651 245.299, 136.332 256.433 C 149.223 265.038, 148.683 264.400, 145.878 267.729 C 142.437 271.813, 122.391 291, 121.565 291 C 121.181 291, 119.434 289.925, 117.683 288.612 C 113.322 285.340, 105.720 281.628, 97.978 278.991 C 93.089 277.325, 88.246 276.655, 78.231 276.261 L 64.962 275.738 65.231 299.119 L 65.500 322.500 76.500 322.192 C 90.134 321.809, 96.703 320.584, 104.846 316.905 C 115.255 312.203, 123.093 305.842, 145.860 283.621 C 157.762 272.004, 170.425 260.311, 174 257.637 C 201.192 237.292, 235.462 233.526, 265.810 247.548 C 277.983 253.172, 297 268.004, 297 271.874 C 297 272.745, 295.901 276.392, 294.559 279.979 C 293.216 283.565, 290.706 291.113, 288.981 296.750 C 287.256 302.388, 285.456 307, 284.982 307 C 284.507 307, 280.830 303.952, 276.809 300.226 C 257.434 282.270, 243.360 276.062, 224.708 277.243 C 215.514 277.825, 207.139 280.744, 199.417 286.057 C 196.810 287.851, 185.412 298.281, 174.089 309.236 C 149.913 332.624, 140.443 340.087, 125.500 347.531 C 110.013 355.246, 98.514 358.033, 80 358.559 L 65.500 358.971 65.208 365.328 L 64.916 371.686 79.708 372.324 C 105.387 373.433, 122.695 379.329, 141.209 393.275 L 147.917 398.329 138.053 408.915 C 132.628 414.737, 126.833 420.788, 125.174 422.361 L 122.158 425.223 118.829 422.714 C 114.159 419.195, 102.526 413.487, 96 411.512 C 92.818 410.550, 85.126 409.609, 77.750 409.281 L 65 408.713 65 431.498 L 65 454.284 78.250 453.734 C 87.908 453.334, 93.398 452.587, 98.500 450.980 C 115.357 445.669, 120.384 441.753, 157 405.392 L 189.500 373.120 202.479 385.423 L 215.458 397.727 208.336 405.613 C 192.924 422.680, 152.417 461.557, 143.517 467.824 C 122.721 482.468, 101.872 488.980, 75.739 488.994 L 64.978 489 65.239 710.750 L 65.500 932.500 68.306 938.214 C 69.849 941.357, 73.077 945.658, 75.479 947.773 C 79.686 951.476, 86.434 954.468, 88.165 953.398 C 88.624 953.114, 89 930.090, 89 902.233 L 89 851.584 116.231 824.286 C 136.561 803.907, 144.481 796.603, 147.481 795.467 C 151.010 794.130, 165.403 793.978, 265.500 794.222 C 377.457 794.495, 379.560 794.536, 382.859 796.500 C 385.163 797.872, 389.510 803.525, 396.698 814.500 C 411.751 837.482, 412.357 838.263, 417.056 840.748 C 420.584 842.614, 422.897 843, 430.546 843 L 439.777 843 440.437 839.250 C 441.870 831.105, 446.392 819.656, 450.903 812.755 C 456.614 804.020, 458.765 801.753, 475.545 786.796 C 491.495 772.580, 493.699 769.083, 495.071 755.821 C 497.261 734.656, 502.076 726.315, 522.722 707.928 C 545.807 687.368, 551.035 681.970, 554.129 675.500 C 557.726 667.979, 558.022 658.970, 554.970 649.912 L 552.941 643.887 557.974 638.240 C 560.742 635.134, 565.112 629.456, 567.684 625.623 L 572.360 618.652 575.575 622.371 C 579.726 627.173, 585.574 639.199, 587.654 647.209 C 590.321 657.485, 589.817 671.716, 586.424 681.917 C 581.619 696.365, 575.695 703.618, 547.311 729.804 C 532.682 743.300, 530.499 747.049, 529.031 761.191 C 527.889 772.206, 525.198 780.606, 520.584 787.564 C 518.737 790.350, 510.764 798.675, 502.865 806.064 C 494.966 813.454, 486.688 821.318, 484.470 823.540 C 479.750 828.267, 475.533 835.153, 474.542 839.750 L 473.841 843 485.272 843 L 496.703 843 498.426 836.637 C 502.816 820.418, 507.569 814.149, 531.225 793.381 C 551.125 775.910, 554.338 771.977, 556.574 762.358 C 557.907 756.623, 557.040 745.811, 554.930 741.869 C 554.349 740.783, 554.014 739.329, 554.187 738.638 C 554.359 737.946, 559.161 732.918, 564.858 727.464 L 575.216 717.548 577.252 720.024 C 580.273 723.696, 585.722 735.663, 587.468 742.460 C 589.432 750.101, 589.429 762.919, 587.461 770.540 C 583.515 785.828, 576.485 795.787, 557.831 812.510 C 540.061 828.443, 535.482 833.134, 533.047 837.908 C 531.921 840.115, 531 842.163, 531 842.460 C 531 842.757, 536.400 843, 543 843 C 549.600 843, 555 842.857, 555 842.682 C 555 842.506, 554.291 839.975, 553.424 837.057 C 552.558 834.139, 552.220 831.443, 552.674 831.066 C 553.128 830.689, 558.160 826.138, 563.856 820.954 L 574.212 811.528 576.387 814.255 C 579.225 817.815, 583.927 829.970, 585.283 837.250 L 586.353 843 592.933 843 C 601.300 843, 605.606 841.751, 609.242 838.270 C 610.833 836.746, 616.223 828.300, 621.220 819.500 C 631.566 801.280, 632.970 799.442, 638.500 796.890 C 642.314 795.130, 647.799 795.043, 756.307 795.022 C 838.532 795.006, 871.417 795.318, 874.807 796.146 C 879.083 797.191, 881.796 799.566, 905.364 822.896 C 920.590 837.969, 931.828 849.896, 932.688 851.895 C 933.917 854.753, 934.097 863.002, 933.824 904.061 C 933.646 930.885, 933.835 953.167, 934.244 953.576 C 935.501 954.835, 942.687 952.119, 947.209 948.678 C 950.081 946.492, 952.658 943.144, 955 938.557 L 958.500 931.702 958.761 710.351 L 959.022 489 947.761 488.994 C 920.656 488.980, 897.531 482.117, 878.266 468.370 C 873.060 464.656, 872.114 463.567, 873.079 462.405 C 873.728 461.623, 879.572 456.013, 886.066 449.939 L 897.872 438.895 903.186 442.419 C 915.162 450.362, 928.843 453.906, 947.750 453.965 L 959 454 959 431.364 L 959 408.728 944.250 409.292 C 928.052 409.911, 922.488 411.107, 911.653 416.296 C 901.616 421.103, 894.931 426.410, 875.813 444.749 C 850.657 468.880, 838.216 477.369, 819 483.513 C 807.554 487.172, 790.209 488.033, 777.934 485.550 C 761.045 482.133, 745.914 473.770, 731.747 460.023 L 723.994 452.500 729.581 436 C 732.653 426.925, 735.349 419.318, 735.571 419.096 C 735.794 418.873, 739.918 422.484, 744.738 427.120 C 762.492 444.198, 775.649 450.505, 793.500 450.494 C 812.780 450.482, 820.548 446.083, 847.903 419.682 C 870.268 398.097, 879.960 390.553, 894.500 383.411 C 910.761 375.424, 921.578 372.908, 942 372.364 L 958.500 371.924 958.500 365.236 L 958.500 358.548 950.496 358.851 C 931.628 359.566, 911.561 355.402, 895.313 347.399 C 887.041 343.324, 873.066 334.289, 873.019 332.985 C 873.008 332.702, 878.628 326.856, 885.506 319.994 C 896.435 309.091, 898.232 307.672, 899.756 308.738 C 904.696 312.193, 914.564 317.351, 919.700 319.162 C 926.090 321.417, 940.640 322.955, 951.500 322.524 L 958.500 322.246 958.768 299.123 L 959.037 276 947.268 276.017 C 933.600 276.038, 924.220 277.772, 915.358 281.920 C 903.064 287.673, 902.269 288.377, 848.142 341.458 L 831.785 357.500 819.376 344.551 C 812.550 337.428, 807.086 331.258, 807.233 330.840 C 807.380 330.421, 822.199 315.293, 840.165 297.223 C 873.891 263.300, 880.954 257.287, 895.351 250.243 C 911.671 242.257, 926.536 239.011, 946.808 239.004 L 959.116 239 958.755 180.250 C 958.404 123.341, 958.325 121.284, 956.230 114.620 C 948.312 89.436, 931.540 71.778, 907.500 63.316 L 899.500 60.500 514.500 60.328 C 178.356 60.177, 128.612 60.343, 122.500 61.632 M 496.170 84.092 C 407.637 90.532, 323.866 146.023, 283.029 225.280 C 279.713 231.716, 277 237.581, 277 238.314 C 277 239.047, 280.110 241.772, 283.911 244.369 C 287.712 246.966, 292.774 250.765, 295.161 252.811 C 297.547 254.856, 300.234 257.097, 301.132 257.789 C 302.569 258.898, 303.621 257.468, 309.967 245.774 C 324.105 219.725, 338.536 200.128, 356.422 182.689 C 374.270 165.288, 391.139 153.464, 414.500 141.982 C 437.869 130.497, 460.273 123.607, 484.301 120.517 C 497.998 118.756, 522.825 118.538, 536.789 120.055 C 567.197 123.360, 602.668 136.085, 629.935 153.470 C 666.206 176.596, 693.567 206.944, 713.581 246.250 C 717.151 253.262, 720.451 259, 720.914 259 C 721.377 259, 722.373 258.249, 723.128 257.332 C 724.966 255.096, 737.451 245.917, 742.742 242.911 C 745.076 241.585, 746.988 239.862, 746.992 239.083 C 747.006 236.596, 734.077 212.887, 726.498 201.500 C 696.632 156.630, 653.176 121.345, 603.500 101.630 C 579.857 92.246, 552.653 85.866, 530.500 84.509 C 511.517 83.346, 507.158 83.293, 496.170 84.092 M 502.500 142.627 C 468.932 145.629, 447.062 151.447, 421.746 164.111 C 370.786 189.604, 332.604 235.228, 313.464 293.500 C 298.213 339.931, 298.241 386.141, 313.548 432.826 C 340.063 513.694, 408.220 570.429, 490.471 580.102 C 504.411 581.741, 532.420 580.721, 546.819 578.050 C 632.612 562.136, 700.598 487.798, 715.713 393.373 C 718.200 377.834, 718.196 340.531, 715.704 326.092 C 706.902 275.081, 686.593 234.334, 653.584 201.457 C 622.818 170.814, 579.245 149.391, 537 144.136 C 527.258 142.924, 508.398 142.099, 502.500 142.627 M 778.831 242.023 C 770.959 243.352, 762.880 246.011, 754.315 250.094 C 745.711 254.195, 731.847 264.017, 727.692 268.955 L 725.240 271.868 728.187 280.184 C 729.808 284.758, 732.056 291.875, 733.183 296 C 736.539 308.292, 735.750 308.129, 746.443 298.740 C 757.166 289.325, 764.140 284.841, 773.758 281.179 C 779.529 278.981, 782.156 278.604, 792 278.556 C 802.249 278.506, 804.181 278.787, 809.755 281.136 C 813.195 282.585, 818.967 285.698, 822.582 288.054 L 829.155 292.336 842.207 279.284 L 855.258 266.232 849.695 261.866 C 837.587 252.365, 822.797 245.212, 809.792 242.567 C 801.752 240.933, 786.847 240.671, 778.831 242.023 M 493 267.496 C 467.846 272.558, 444.724 289.165, 430.972 312.047 C 402.041 360.183, 421.067 423.287, 471.716 447.187 C 485.678 453.776, 493.184 455.332, 511 455.332 C 523.819 455.332, 527.884 454.954, 534.500 453.150 C 564.798 444.887, 590.422 420.602, 600.415 390.678 C 605.247 376.209, 606.131 354.296, 602.494 339.129 C 593.922 303.375, 563.978 274.065, 529.228 267.417 C 520.179 265.685, 501.797 265.726, 493 267.496 M 496.715 287.928 C 468.650 294.051, 447.062 314.820, 439.408 343.058 C 437.029 351.838, 437.032 370.163, 439.415 379 C 445.494 401.544, 463.270 421.825, 484 429.868 C 504.975 438.006, 529.246 436.262, 547.916 425.276 C 556.036 420.497, 567.559 409.359, 572.790 401.230 C 580.907 388.618, 585.859 369.072, 584.474 355.119 C 580.006 310.129, 538.967 278.708, 496.715 287.928 M 249.530 295.294 C 244.407 311.837, 242.029 316.995, 235.221 326.342 L 231.694 331.185 244.906 344.342 L 258.117 357.500 262.946 352.303 C 272.839 341.654, 282.678 322.924, 280.352 319.165 C 279.786 318.249, 274.678 313.336, 269.002 308.247 C 258.057 298.432, 250.181 293.193, 249.530 295.294 M 763.416 299.091 C 756.896 303.600, 741 318.818, 741 320.551 C 741 322.903, 749.981 339.830, 754.380 345.769 C 758.659 351.546, 798.734 393.572, 819.776 414.349 L 828.738 423.198 841.856 410.488 C 850.715 401.905, 854.735 397.348, 854.235 396.455 C 853.828 395.728, 841.781 383.290, 827.464 368.816 C 813.147 354.342, 797.322 338.150, 792.297 332.833 C 781.987 321.925, 775.973 312.084, 773.302 301.750 C 772.342 298.038, 771.056 295, 770.444 295 C 769.832 295, 766.669 296.841, 763.416 299.091 M 178.414 320.421 L 165.500 332.808 201.563 369.154 C 236.233 404.097, 237.789 405.828, 241.861 414 C 244.190 418.675, 246.666 424.749, 247.363 427.499 C 248.071 430.291, 249.263 432.611, 250.065 432.754 C 252.457 433.182, 264.209 423.601, 272.514 414.453 L 280.344 405.828 277.073 399.164 C 270.704 386.189, 263.678 378.080, 232.217 347.397 C 215.323 330.920, 199.211 315.323, 196.414 312.737 L 191.328 308.034 178.414 320.421 M 499.575 322.594 C 487.696 326.378, 477.231 336.778, 473.560 348.448 C 470.916 356.854, 471.705 369.465, 475.384 377.605 C 482.862 394.151, 501.728 403.486, 519.637 399.502 C 556.373 391.329, 562.141 341.676, 528.296 324.964 C 522.468 322.087, 520.289 321.567, 513 321.317 C 507.306 321.121, 502.874 321.543, 499.575 322.594 M 759.357 375.229 C 753.265 381.710, 747.741 389.559, 743.907 397.186 C 741.758 401.459, 740 405.322, 740 405.770 C 740 407.367, 757.611 424.736, 763.960 429.400 C 771.189 434.712, 772.141 434.492, 773.472 427.198 C 774.421 421.993, 780.121 410.489, 784.931 404.069 C 787.169 401.083, 789 398.601, 789 398.556 C 789 398.510, 783.022 392.507, 775.716 385.216 L 762.432 371.959 759.357 375.229 M 275.477 427.038 C 265.474 437.117, 254.846 444.531, 245.633 447.857 C 239.550 450.053, 236.807 450.435, 227 450.454 C 213.873 450.479, 206.484 448.487, 197.265 442.436 C 194.386 440.546, 191.680 439, 191.250 439 C 190.281 439, 166 463.263, 166 464.232 C 166 465.652, 176.733 472.930, 184.792 476.975 C 189.353 479.264, 197.228 482.178, 202.292 483.450 C 235.490 491.792, 266.368 483.065, 291.741 458.170 L 296.982 453.028 294.876 447.764 C 291.633 439.657, 288.434 430.041, 287.053 424.250 C 286.364 421.363, 285.272 419, 284.627 419 C 283.981 419, 279.864 422.617, 275.477 427.038 M 294.500 471.113 C 290.650 474.439, 284.714 479.002, 281.309 481.253 L 275.118 485.347 276.610 488.923 C 277.431 490.890, 281.057 497.675, 284.668 504 C 315.005 557.140, 361.517 597.956, 416 619.246 C 433.272 625.995, 432.094 626.007, 436.396 619.037 C 438.410 615.774, 443.462 609.485, 447.623 605.063 L 455.187 597.022 452.529 596.011 C 451.066 595.455, 449.434 595, 448.902 595 C 448.369 595, 442.436 592.915, 435.717 590.367 C 381.231 569.706, 336.573 529.745, 307.593 475.717 C 304.431 469.823, 301.767 465.015, 301.672 465.033 C 301.578 465.051, 298.350 467.787, 294.500 471.113 M 711.765 477.250 C 692.778 513.611, 666.191 544.196, 634.790 565.801 C 624.743 572.713, 604.888 583.283, 593.818 587.612 C 587.280 590.169, 581.556 592.990, 581.097 593.880 C 580.639 594.771, 579.718 597.830, 579.050 600.679 L 577.835 605.857 582.933 612.509 C 585.738 616.168, 588.730 620.512, 589.584 622.162 C 590.708 624.335, 591.599 624.977, 592.818 624.490 C 593.743 624.121, 598.325 622.461, 603 620.801 C 656.869 601.681, 708.733 554.368, 739.006 496.731 L 745.094 485.139 738.964 480.975 C 735.592 478.686, 729.745 474.154, 725.971 470.906 C 722.197 467.658, 718.896 465, 718.635 465 C 718.374 465, 715.283 470.512, 711.765 477.250 M 557.601 599.018 C 553.806 600.028, 545.256 601.630, 538.601 602.578 L 526.500 604.301 520.649 609.901 C 512.385 617.808, 505.454 627.194, 501.005 636.500 C 496.681 645.545, 495 652.405, 495 661.012 C 495 664.617, 494.157 669.184, 492.841 672.712 C 490.409 679.229, 482.700 687.445, 461.814 705.780 C 447.143 718.659, 440.879 727.589, 436.453 741.934 C 432.932 753.348, 433.789 768.808, 438.574 780.176 C 440.869 785.630, 447.703 797, 448.685 797 C 449.773 797, 471.479 776.456, 471.349 775.549 C 471.266 774.972, 470.426 771.585, 469.483 768.022 C 467.240 759.553, 467.988 752.499, 471.988 744.372 C 475.185 737.878, 478.309 734.698, 505 710.762 C 522.256 695.287, 527.532 685.687, 528.992 667.099 C 530.035 653.823, 532.349 649.011, 543.464 637 C 555.071 624.457, 561.285 615.477, 564.973 605.914 C 566.638 601.597, 568 597.825, 568 597.532 C 568 596.640, 564.831 597.092, 557.601 599.018 M 458.187 610.798 C 442.317 626.851, 435.165 642.004, 434.256 661.502 C 433.823 670.785, 434.085 673.755, 435.928 680.502 C 437.998 688.078, 443.561 699.830, 446.538 702.917 C 447.887 704.315, 450.311 702.403, 469.385 684.904 C 471.213 683.226, 471.217 682.980, 469.497 676.629 C 467.150 667.956, 467.810 658.280, 471.263 650.738 C 472.810 647.357, 477.327 641.294, 482.739 635.332 C 487.647 629.924, 494.045 622.125, 496.956 618 C 499.867 613.875, 503.170 609.489, 504.295 608.254 C 505.420 607.019, 506.044 605.711, 505.680 605.347 C 505.317 604.984, 500.178 604.309, 494.260 603.847 C 488.342 603.385, 481.055 602.556, 478.066 602.004 C 468.581 600.251, 468.641 600.225, 458.187 610.798 M 219.635 900.073 L 217 902.145 217 945.873 C 217 978.549, 217.303 989.903, 218.200 990.800 C 219.072 991.672, 226.570 992, 245.665 992 C 270.609 992, 271.982 991.903, 272.965 990.066 C 273.632 988.819, 274 972.981, 274 945.520 L 274 902.909 271.545 900.455 L 269.091 898 245.680 898 C 223.511 898, 222.130 898.110, 219.635 900.073 M 294.655 899.829 C 293.168 901.472, 293 906.116, 293 945.629 C 293 978.495, 293.303 989.903, 294.200 990.800 C 295.072 991.672, 302.570 992, 321.665 992 C 346.609 992, 347.982 991.903, 348.965 990.066 C 349.632 988.818, 350 972.840, 350 945.066 C 350 903.333, 349.938 901.938, 348 900 C 346.107 898.107, 344.667 898, 321.155 898 C 298.356 898, 296.174 898.151, 294.655 899.829 M 372 898.694 C 368.073 900.097, 368 900.967, 368 946.069 C 368 981.882, 368.247 989.960, 369.373 990.894 C 370.342 991.699, 378.500 991.955, 397.123 991.767 L 423.500 991.500 423.772 946.500 C 424.043 901.621, 424.038 901.495, 421.911 899.750 C 420.010 898.190, 417.270 898.009, 396.639 898.079 C 383.913 898.122, 372.825 898.399, 372 898.694 M 446.200 900.200 C 445.302 901.098, 445 912.665, 445 946.093 C 445 985.925, 445.172 990.852, 446.582 991.393 C 447.452 991.727, 459.512 992, 473.382 992 C 491.663 992, 498.930 991.670, 499.800 990.800 C 500.697 989.903, 501 978.549, 501 945.871 C 501 907.452, 500.809 901.952, 499.429 900.571 C 498.083 899.226, 494.230 899, 472.629 899 C 454.340 899, 447.070 899.330, 446.200 900.200 M 523.655 900.829 C 522.168 902.471, 522 907.082, 522 946.129 C 522 978.606, 522.303 989.903, 523.200 990.800 C 524.072 991.672, 531.570 992, 550.665 992 C 575.609 992, 576.982 991.903, 577.965 990.066 C 578.632 988.820, 579 973.064, 579 945.788 C 579 909.083, 578.793 903.149, 577.443 901.223 C 575.904 899.025, 575.597 899, 550.598 899 C 527.369 899, 525.175 899.149, 523.655 900.829 M 600.200 900.200 C 598.473 901.927, 598.473 989.073, 600.200 990.800 C 601.908 992.508, 652.092 992.508, 653.800 990.800 C 654.697 989.903, 655 978.568, 655 945.955 C 655 904.942, 654.890 902.210, 653.171 900.655 C 651.572 899.208, 648.204 899, 626.371 899 C 608.283 899, 601.069 899.331, 600.200 900.200 M 675.655 900.829 C 674.168 902.471, 674 907.082, 674 946.129 C 674 978.606, 674.303 989.903, 675.200 990.800 C 676.909 992.509, 728.091 992.509, 729.800 990.800 C 730.697 989.903, 731 978.549, 731 945.871 C 731 907.452, 730.809 901.952, 729.429 900.571 C 728.083 899.226, 724.226 899, 702.584 899 C 679.369 899, 677.175 899.149, 675.655 900.829 M 752.200 900.200 C 751.302 901.098, 751 912.665, 751 946.093 C 751 985.925, 751.172 990.852, 752.582 991.393 C 753.452 991.727, 765.613 992, 779.607 992 L 805.050 992 805.998 989.504 C 806.556 988.037, 806.855 969.457, 806.724 944.424 C 806.509 903.561, 806.421 901.781, 804.559 900.419 C 801.957 898.517, 754.084 898.316, 752.200 900.200" stroke="none" fill="#b885f2" fill-rule="evenodd"/>
</svg>
